<svg width="729" height="767" viewBox="0 0 729 767" fill="none" xmlns="http://www.w3.org/2000/svg">
<g clip-path="url(#clip0_5_6156)">
<mask id="mask0_5_6156" style="mask-type:luminance" maskUnits="userSpaceOnUse" x="0" y="0" width="729" height="767">
<path d="M728.7 0H0V766.3H728.7V0Z" fill="white"/>
</mask>
<g mask="url(#mask0_5_6156)">
<path d="M575.2 421.2H728.7C606.7 536.7 485.8 651.3 364.4 766.3C243.1 651.5 122.1 536.8 0 421.1H153.4V0H575.2V421.2ZM230.5 459.3H498.2V382.9H337C348.3 358.1 344.6 332 345.4 306H421.4V267.9C408.6 267.9 396.2 267.9 383.7 267.9C371.1 267.9 358.5 267.9 345.9 267.9C345.6 267 345.4 266.5 345.4 266.1C345.4 239.4 345.1 212.8 345.7 186.1C346 170.9 356.7 158.7 371.6 154.4C387.2 149.8 405.5 155.2 414.1 166.7C419.5 173.9 421.6 182 421.8 190.7H500C497.6 178.2 496.4 166 492.7 154.6C477.4 106.5 435.1 77 385.2 76.3C355 75.8 328 85.4 305.4 105.9C284.6 124.9 272.4 148.7 269.7 176.7C268.2 191.9 268.7 207.3 268.6 222.6C268.4 237.5 268.6 252.5 268.6 267.9H230.7V306.2H268.5C268.5 320.9 269.2 335.1 268.3 349.2C267.4 364 259.7 374.9 245.6 380.4C240.9 382.2 235.7 382.7 230.6 383.7V459.3H230.5Z" fill="#2B4C7F"/>
</g>
</g>
<defs>
<clipPath id="clip0_5_6156">
<rect width="728.7" height="766.3" fill="white"/>
</clipPath>
</defs>
</svg>
