<svg width="1283" height="1215" viewBox="0 0 1283 1215" fill="none" xmlns="http://www.w3.org/2000/svg">
<g clip-path="url(#clip0_5_6090)">
<mask id="mask0_5_6090" style="mask-type:luminance" maskUnits="userSpaceOnUse" x="0" y="0" width="1283" height="1215">
<path d="M1282.8 0H0V1214.8H1282.8V0Z" fill="white"/>
</mask>
<g mask="url(#mask0_5_6090)">
<path d="M628.6 843.6C639 838.2 649.5 832.9 659.8 827.3C674.4 819.3 688.9 811.1 703.4 803.1C705.1 802.2 707.1 801.4 708.9 801.3C753.3 799.5 797.8 797.8 842.2 796.1C876.7 794.8 911.1 793.3 945.6 792C957 791.6 966.4 787.3 974.4 779.1C1044.5 708 1114.7 637.1 1184.8 566.1C1197.2 553.5 1211.5 544.2 1229.1 540.6C1253.8 535.5 1275.3 547.1 1281 569.3C1285.3 585.8 1281.4 600.9 1270.3 613.6C1206.7 686.6 1143 759.4 1079.3 832.3C1061 853.2 1043.1 874.6 1024.2 894.9C996.4 924.8 962 943.9 921.6 950.5C899.3 954.2 876.6 955.7 854.1 958.1C827.3 961 800.5 964 773.7 966.9C747.9 969.7 722 972.4 696.2 975.2C667.2 978.3 638.3 981.6 609.3 984.5C592.4 986.2 575.5 987 558.6 988.7C532.8 991.2 508.1 998.5 483.3 1005.6C436.4 1019 392.4 1039.6 348.2 1059.6C338.5 1064 328.8 1068.2 318.7 1072.7C283.7 1003.5 248.8 934.7 213.7 865.4C220.3 862.2 226.5 859.2 232.8 856.3C245.7 850.2 258.7 844.2 271.6 838C288.1 830 301.1 817.8 312.9 803.9C383 720.8 470 664.7 576.4 639.8C615.7 630.6 655.2 622 694.3 612.1C721.4 605.2 748.1 596.5 772.3 582.2C787 573.5 800.4 562.7 814.3 552.6C829.3 541.7 844 530.6 859 519.7C885.5 500.5 921.5 506.1 940.6 532.3C961.2 560.5 956.5 595.8 929.6 616C829.9 690.7 730.3 765.5 630.6 840.2C629.6 841 628.5 841.8 627.5 842.6C628.1 842.8 628.3 843.2 628.6 843.6Z" fill="#2B4C7F"/>
</g>
<mask id="mask1_5_6090" style="mask-type:luminance" maskUnits="userSpaceOnUse" x="0" y="0" width="1283" height="1215">
<path d="M1282.8 0H0V1214.8H1282.8V0Z" fill="white"/>
</mask>
<g mask="url(#mask1_5_6090)">
<path d="M966.4 582C971 582.5 975.2 582.9 980.1 583.5V609.9H997.1V582.5C1008.2 580.2 1018 576.4 1025.9 568.7C1046.3 548.8 1044.5 516.2 1021 500C1010.6 492.8 998.4 488.2 987 482.3C983.3 480.4 979.6 478.5 976.1 476.2C966.5 469.9 962.8 461.3 965.3 451.5C967.7 441.8 975.7 435.2 986.5 434C1000.7 432.4 1013.9 435.3 1026.9 442.6C1029.2 436.7 1031.4 431 1033.7 425.1C1023.1 418.2 1011.1 416.4 998.7 415.2V389.6H982C982 396.9 981.8 404.2 982.1 411.5C982.2 415 981.5 416.5 977.6 417.5C959.2 422.2 945.7 432.5 942.1 452.3C939.3 467.5 943.4 480.9 955.9 490C964.7 496.4 974.9 500.8 984.5 506C990.9 509.5 997.8 512.3 1003.8 516.3C1014.1 523.2 1018.2 533.9 1015.2 544.9C1012.1 556.4 1003.5 562.3 992.4 563.8C985 564.8 977.2 563.6 969.6 563C968.4 562.9 966.7 561 966.4 559.7C960.7 525.8 938 501.8 904.4 495.8C885 492.3 867 497 851.1 508.7C836.2 519.6 821.3 530.6 806.4 541.6C805.1 542.5 803.8 543.4 801.9 544.7C798.8 529 797.6 513.9 798.5 498.5C800.8 458.7 813.6 422.6 838.3 391.1C870.8 349.6 913.2 324.6 965.7 318.1C1060.6 306.3 1147.5 363.2 1174.5 454.4C1184 486.5 1184.7 519 1177.2 551.6C1176.6 554 1175.2 556.5 1173.4 558.3C1130.5 601.8 1087.4 645.2 1044.5 688.8C1040.8 692.6 1036.7 694.6 1031.7 695.6C979.5 706.3 930.8 697.6 885.8 669.1C885.1 668.7 884.5 668.1 883.4 667.3C891 661.6 898.4 656 905.9 650.4C917 642.1 928.1 633.9 939.1 625.5C952.7 615.4 959.7 603.9 966.4 582Z" fill="#2B4C7F"/>
</g>
<mask id="mask2_5_6090" style="mask-type:luminance" maskUnits="userSpaceOnUse" x="0" y="0" width="1283" height="1215">
<path d="M1282.8 0H0V1214.8H1282.8V0Z" fill="white"/>
</mask>
<g mask="url(#mask2_5_6090)">
<path d="M165.7 841.7C178 842.4 185.1 847 189.6 855.8C206.3 888.7 223 921.7 239.7 954.6C264.9 1004.3 290 1054 315.2 1103.7C323.3 1119.6 319.2 1132.6 303.3 1140.7C257 1164.2 210.7 1187.6 164.3 1211C148.9 1218.8 135.9 1214.5 128.1 1199.1C86.8 1117.5 45.7 1035.7 3.99995 954.3C-4.70005 937.3 1.49996 922.5 16.7 915.1C63 892.4 108.8 868.6 154.9 845.5C158.9 843.4 163.5 842.5 165.7 841.7ZM224.8 1106.8C224.6 1092.1 213.1 1080.8 198.7 1081.1C184.3 1081.3 173.3 1093 173.5 1107.8C173.7 1121.6 185.5 1132.9 199.4 1132.8C213.5 1132.7 225 1121 224.8 1106.8Z" fill="#2B4C7F"/>
</g>
<mask id="mask3_5_6090" style="mask-type:luminance" maskUnits="userSpaceOnUse" x="0" y="0" width="1283" height="1215">
<path d="M1282.8 0H0V1214.8H1282.8V0Z" fill="white"/>
</mask>
<g mask="url(#mask3_5_6090)">
<path d="M585.6 421.8C644.6 421.8 703.5 421.8 762.5 421.8C771.2 421.8 773.2 423.7 773.2 432.3C773.2 443.6 773.2 455 773.2 466.3C773.2 473.5 770.7 475.9 763.6 475.9C645 475.9 526.4 475.9 407.8 475.9C400 475.9 397.7 473.5 397.7 465.8C397.7 454.3 397.7 442.8 397.7 431.3C397.7 424 399.9 421.9 407.3 421.9C466.6 421.8 526.1 421.8 585.6 421.8Z" fill="#2B4C7F"/>
</g>
<mask id="mask4_5_6090" style="mask-type:luminance" maskUnits="userSpaceOnUse" x="0" y="0" width="1283" height="1215">
<path d="M1282.8 0H0V1214.8H1282.8V0Z" fill="white"/>
</mask>
<g mask="url(#mask4_5_6090)">
<path d="M585 538.9C526.2 538.9 467.4 538.9 408.6 538.9C399.8 538.9 397.6 536.7 397.6 528.1C397.6 517.3 397.6 506.4 397.6 495.6C397.6 486.6 399.4 484.8 408.3 484.8C473.3 484.8 538.2 484.8 603.2 484.8C656.3 484.8 709.5 484.8 762.6 484.8C771.3 484.8 773.1 486.7 773.1 495.4C773.1 506.6 773.1 517.7 773.1 528.9C773.1 536.6 770.7 538.9 762.9 538.9C703.6 538.9 644.3 538.9 585 538.9Z" fill="#2B4C7F"/>
</g>
<mask id="mask5_5_6090" style="mask-type:luminance" maskUnits="userSpaceOnUse" x="0" y="0" width="1283" height="1215">
<path d="M1282.8 0H0V1214.8H1282.8V0Z" fill="white"/>
</mask>
<g mask="url(#mask5_5_6090)">
<path d="M585.6 547.8C644.4 547.8 703.2 547.8 762 547.8C771.4 547.8 772.8 549.6 773.3 558.7C773.6 564.5 771.7 567.7 766.6 570.3C739.4 584.4 710.6 593.9 681.1 601.5C679.7 601.9 678.1 601.7 676.6 601.7C587.5 601.7 498.3 601.7 409.2 601.7C399.3 601.7 397.5 600 397.6 590.1C397.6 578.9 397.6 567.8 397.6 556.6C397.6 550 400.1 547.6 406.7 547.6C466.3 547.8 525.9 547.8 585.6 547.8Z" fill="#2B4C7F"/>
</g>
<mask id="mask6_5_6090" style="mask-type:luminance" maskUnits="userSpaceOnUse" x="0" y="0" width="1283" height="1215">
<path d="M1282.8 0H0V1214.8H1282.8V0Z" fill="white"/>
</mask>
<g mask="url(#mask6_5_6090)">
<path d="M641.4 612.2C621.6 616.4 601.9 620.9 582 624.8C543.8 632.4 507.4 645.3 472.2 661.9C468.5 663.7 464 664.6 459.9 664.7C442.6 665 425.2 664.8 407.9 664.8C399.8 664.8 397.5 662.5 397.5 654.4C397.5 642.7 397.4 631.1 397.5 619.4C397.5 613.1 400 610.7 406.4 610.7C483.4 610.7 560.4 610.7 637.3 610.7C638.6 610.7 639.9 610.7 641.2 610.7C641.3 611.3 641.4 611.7 641.4 612.2Z" fill="#2B4C7F"/>
</g>
<mask id="mask7_5_6090" style="mask-type:luminance" maskUnits="userSpaceOnUse" x="0" y="0" width="1283" height="1215">
<path d="M1282.8 0H0V1214.8H1282.8V0Z" fill="white"/>
</mask>
<g mask="url(#mask7_5_6090)">
<path d="M850.5 782.2C866.7 751.5 882.3 721.8 898.2 691.7C918.4 701.5 939.2 708.3 962 711.6C958.8 716.8 955.9 721.5 953 726.3C942.8 742.7 932.5 759 922.5 775.5C920.8 778.4 918.8 779.6 915.4 779.8C894 780.3 872.7 781.3 850.5 782.2Z" fill="#2B4C7F"/>
</g>
<mask id="mask8_5_6090" style="mask-type:luminance" maskUnits="userSpaceOnUse" x="0" y="0" width="1283" height="1215">
<path d="M1282.8 0H0V1214.8H1282.8V0Z" fill="white"/>
</mask>
<g mask="url(#mask8_5_6090)">
<path d="M936.5 778C942.2 768.8 947.9 759.7 953.6 750.6C960.7 739.2 967.8 727.7 975.1 716.3C976 714.9 978 713.4 979.5 713.3C993.4 712.8 1007.4 712.6 1021.3 712.3C1020.8 712.9 1020 714 1019 714.9C1002.5 731.6 985.5 747.9 969.5 765.1C960.5 774.9 950.6 780.5 936.5 778Z" fill="#2B4C7F"/>
</g>
<mask id="mask9_5_6090" style="mask-type:luminance" maskUnits="userSpaceOnUse" x="0" y="0" width="1283" height="1215">
<path d="M1282.8 0H0V1214.8H1282.8V0Z" fill="white"/>
</mask>
<g mask="url(#mask9_5_6090)">
<path d="M725.3 786.1C740.9 774.4 756.5 762.7 772.8 750.5V785.2C756.9 785.9 741.4 786.5 725.8 787.2C725.6 786.8 725.4 786.5 725.3 786.1Z" fill="#2B4C7F"/>
</g>
<mask id="mask10_5_6090" style="mask-type:luminance" maskUnits="userSpaceOnUse" x="0" y="0" width="1283" height="1215">
<path d="M1282.8 0H0V1214.8H1282.8V0Z" fill="white"/>
</mask>
<g mask="url(#mask10_5_6090)">
<path d="M448.1 673.8C430.9 684.7 414.6 695 397.6 705.8C397.6 699.9 397.6 694.3 397.6 688.6C397.6 674.1 397.8 673.8 412.4 673.9C424 673.8 435.6 673.8 448.1 673.8Z" fill="#2B4C7F"/>
</g>
<mask id="mask11_5_6090" style="mask-type:luminance" maskUnits="userSpaceOnUse" x="0" y="0" width="1283" height="1215">
<path d="M1282.8 0H0V1214.8H1282.8V0Z" fill="white"/>
</mask>
<g mask="url(#mask11_5_6090)">
<path d="M610.7 246.6C604.5 229.5 598.5 212.7 592.5 195.9C583.1 169.7 573.6 143.6 564.1 117.4C562.4 112.6 559.7 108.9 554 108.6C548.2 108.4 545 111.8 542.8 116.6C533.6 136.9 524.4 157.2 515.3 177.5C514.5 179.2 514 180.5 511.6 180.5C483.5 180.4 455.4 180.4 427.3 180.4C426.8 180.4 426.3 180.3 425.7 180.2C419.5 166.3 414.9 152 412.3 137C408.1 112.3 409.4 88.2 419.3 64.9C429.7 40.7 446.9 22.8 470.4 11C487.8 2.3 506.2 -1.2 525.4 0.200001C551.8 2.2 575.1 11.6 592.8 32C599.2 39.4 604.4 47.8 610.2 55.8C610.8 54.8 611.7 53.1 612.7 51.3C626.4 26 647.3 10.2 675.1 3.2C686.7 0.300001 698.4 -0.699999 710.2 0.200001C725.9 1.5 740.7 6 754.4 14C782.4 30.3 800 54.4 806.8 86C810.9 105 810.6 124.2 805.9 143.1C803 154.8 798.6 166.2 794.9 177.8C794.2 180.1 792.9 180.6 790.6 180.6C762.2 180.5 733.9 180.6 705.5 180.5C703.9 180.5 702 179.6 700.9 178.5C692 169.1 683.2 159.5 674.4 149.9C666.9 141.7 658.7 143.1 654 153.3C639.9 183.9 625.8 214.5 611.7 245.2C611.7 245.4 611.4 245.7 610.7 246.6Z" fill="#2B4C7F"/>
</g>
<mask id="mask12_5_6090" style="mask-type:luminance" maskUnits="userSpaceOnUse" x="0" y="0" width="1283" height="1215">
<path d="M1282.8 0H0V1214.8H1282.8V0Z" fill="white"/>
</mask>
<g mask="url(#mask12_5_6090)">
<path d="M436.9 202C445.5 202 453.6 202 461.8 202C480.4 202.1 499 202 517.6 202.2C524.5 202.3 529.1 199.7 531.9 193.2C538.1 178.9 544.7 164.8 551.1 150.6C551.4 149.9 551.8 149.2 552.4 148C556 157.9 559.4 167.3 562.8 176.8C574.8 210.1 586.8 243.5 598.8 276.8C600.6 281.8 603.2 285.6 609.1 285.9C614.4 286.2 618 283.6 620.6 277.8C636.2 243.9 651.8 209.9 667.4 176C667.6 175.7 667.8 175.4 668.2 174.6C672.3 179 676.2 183.2 680.2 187.4C682.8 190.3 685.6 193 688 196.1C691.5 200.6 696.2 202.2 701.6 202.1C721.2 202 740.9 202 760.5 201.9C767.6 201.9 774.8 201.9 783 201.9C779.6 207.2 776.7 211.9 773.7 216.5C750.8 250.4 722.1 278.8 690.7 304.8C667.9 323.6 643.9 340.6 619.3 356.9C611.2 362.3 608.3 362.2 600.2 356.9C573.8 339.6 548.2 321.1 524 300.8C503.8 283.9 484.6 266.1 468.1 245.5C457.7 232.4 448.4 218.5 438.6 204.9C438 204.2 437.6 203.2 436.9 202Z" fill="#2B4C7F"/>
</g>
</g>
<defs>
<clipPath id="clip0_5_6090">
<rect width="1282.8" height="1214.8" fill="white"/>
</clipPath>
</defs>
</svg>
