<svg width="154" height="154" viewBox="0 0 154 154" fill="none" xmlns="http://www.w3.org/2000/svg">
<g clip-path="url(#clip0_5_6144)">
<mask id="mask0_5_6144" style="mask-type:luminance" maskUnits="userSpaceOnUse" x="0" y="0" width="154" height="154">
<path d="M153.3 0H0V153.4H153.3V0Z" fill="white"/>
</mask>
<g mask="url(#mask0_5_6144)">
<path d="M76.7 0C34.3 0 0 34.3 0 76.7C0 119 34.3 153.4 76.7 153.4C119.1 153.4 153.4 119.1 153.4 76.7C153.3 34.3 119 0 76.7 0ZM111.8 40.9C117.8 40.9 122.5 45.7 122.4 51.8C122.3 57.8 118 62.1 111.9 62.1C105.8 62.1 101.1 57.3 101.2 51.3C101.3 45.6 106 40.9 111.8 40.9ZM46.6 40.9C52.4 41 57.1 45.6 57.2 51.4C57.3 57.5 52.7 62.2 46.5 62.2C40.5 62.2 36.1 57.9 36 51.9C35.9 45.7 40.7 40.8 46.6 40.9ZM74.8 57.8C72.3 60.3 70.1 63.1 67.3 65.2C59.5 70.9 57.1 78.1 58 87.6C58.8 95.7 58.1 103.9 58.2 112.1C58.2 115.3 57.4 117.9 53.7 117.9C49.9 117.9 49.1 115.3 49.1 112.1C49.1 107.4 49.3 102.8 49 98.1C48.9 96.7 47.5 95.3 46.7 93.9C45.8 95.4 44.2 96.8 44 98.3C43.7 102.9 43.9 107.6 43.9 112.3C43.9 115.4 43.1 118.1 39.2 117.9C35.7 117.8 34.9 115.4 34.9 112.4C34.9 106.6 34.9 100.7 34.9 92.1C38.9 79.7 32 69.1 20.6 60.1C18 58 13.5 55 17.6 50.8C21.6 46.8 24.3 51.2 27 53.7C29.5 56.1 31.9 58.7 34.4 61.1C41.4 67.7 51.8 67.6 58.8 61C62.1 57.9 65.1 54.6 68.3 51.4C70.6 49.1 73.3 48.2 75.7 50.7C78 53.2 77 55.7 74.8 57.8ZM126.1 71.7C123.9 73.8 123.4 75.7 124.2 78.7C126.2 85.9 127.8 93.2 129.5 100.5C129.6 100.8 129.5 101.1 129.4 102C127.4 102.1 125.8 102.2 123.4 102.4C123.4 105.8 123.4 109 123.4 112.3C123.4 115.3 122.6 117.7 119.2 117.9C115.4 118.1 114.5 115.5 114.4 112.3C114.3 109.2 114.4 106 114.4 102.5H109.8C109.6 103.1 109.4 103.5 109.4 104C109.3 106.8 109.4 109.7 109.3 112.5C109.2 115.5 108.2 117.9 104.8 117.9C101.4 117.9 100.2 115.7 100.2 112.6C100.2 109.3 100.2 106 100.2 102.6C98 102.3 96.2 102 93.9 101.7C95.7 93.9 97.3 86.3 99.3 78.8C100.1 75.7 99.8 73.6 97.3 71.4C93 67.5 89 63.2 84.9 59.1C82.4 56.6 79.7 53.9 83.1 50.7C86.1 47.8 88.9 50.1 91.2 52.5C93.8 55.3 96.6 58 99.3 60.7C106.9 68 117.3 68 124.7 60.6C127.8 57.6 130.9 54.5 133.9 51.4C136.1 49.1 138.5 48.5 140.9 50.7C143.4 53 142.6 55.5 140.4 57.7C135.6 62.4 130.9 67.2 126.1 71.7Z" fill="#2B4C7F"/>
</g>
</g>
<defs>
<clipPath id="clip0_5_6144">
<rect width="153.3" height="153.4" fill="white"/>
</clipPath>
</defs>
</svg>
