<svg width="1130" height="1130" viewBox="0 0 1130 1130" fill="none" xmlns="http://www.w3.org/2000/svg">
<g clip-path="url(#clip0_5_6170)">
<mask id="mask0_5_6170" style="mask-type:luminance" maskUnits="userSpaceOnUse" x="0" y="0" width="1130" height="1130">
<path d="M1129.6 0H0V1129.9H1129.6V0Z" fill="white"/>
</mask>
<g mask="url(#mask0_5_6170)">
<path d="M566 0.100116C1036.5 -7.19988 1306.3 571.7 998 927.6C996.2 930 995 930.3 992.7 927.9C980.7 915.6 968.6 903.4 956.3 891.5C953.1 888.4 954.5 886.7 956.5 884.2C982.7 852.1 1004.7 817.3 1022.2 779.8C1245.8 292.6 661 -161.6 244.3 174.7C242.3 176.3 241.1 176.3 239.3 174.5C226.9 161.9 214.4 149.4 201.8 137.1C198.5 133.9 201.4 132.9 203.1 131.5C304.1 46.1001 433.9 0.100116 566 0.100116Z" fill="white"/>
</g>
<mask id="mask1_5_6170" style="mask-type:luminance" maskUnits="userSpaceOnUse" x="0" y="0" width="1130" height="1130">
<path d="M1129.6 0H0V1129.9H1129.6V0Z" fill="white"/>
</mask>
<g mask="url(#mask1_5_6170)">
<path d="M-1.4965e-05 565.3C1.49999 432.3 42.6 313.7 125.7 210C133.5 200.3 133.5 200.3 142.4 209.2C152.3 219.1 162.1 229.1 172.2 238.8C175.3 241.7 175.5 243.5 172.7 246.8C-197 727.2 404.4 1327 883.9 956.7C886.5 954.6 888 954.5 890.4 957C902 968.9 913.8 980.7 925.8 992.3C929 995.4 929.1 996.9 925.6 999.8C562.2 1304.4 -2.10001 1039.3 -1.4965e-05 565.3Z" fill="white"/>
</g>
<mask id="mask2_5_6170" style="mask-type:luminance" maskUnits="userSpaceOnUse" x="0" y="0" width="1130" height="1130">
<path d="M1129.6 0H0V1129.9H1129.6V0Z" fill="white"/>
</mask>
<g mask="url(#mask2_5_6170)">
<path d="M375.5 507C418.5 549.5 461.2 592.5 503.9 635.3C505.7 637.3 507.1 637.2 508.7 635.2C589.2 554.6 669.9 474 750.4 393.3C753.5 390.2 755.1 389.6 758.5 393.1C773.1 408.2 788 422.9 803 437.7C718.6 540 603.6 637 509.2 737.7C506.6 740.3 505.3 739.9 502.9 737.5C444.3 678.8 385.6 620.1 326.9 561.5C324.6 559.2 324.1 557.9 326.7 555.3C343.2 539.4 359 522.9 375.5 507Z" fill="white"/>
</g>
</g>
<defs>
<clipPath id="clip0_5_6170">
<rect width="1129.6" height="1129.9" fill="white"/>
</clipPath>
</defs>
</svg>
