<svg width="800" height="751" viewBox="0 0 800 751" fill="none" xmlns="http://www.w3.org/2000/svg">
<g clip-path="url(#clip0_5_6019)">
<mask id="mask0_5_6019" style="mask-type:luminance" maskUnits="userSpaceOnUse" x="0" y="0" width="800" height="751">
<path d="M799.9 0H0V750.2H799.9V0Z" fill="white"/>
</mask>
<g mask="url(#mask0_5_6019)">
<path d="M150.1 49.7V0.1H199.9V49.4H499.7V0H549.7V49.7C552.2 49.7 554.1 49.7 556 49.7C576.2 49.7 596.3 49.6 616.5 49.7C662.2 49.8 699.8 87.3 699.8 133C699.8 186.3 699.8 239.7 699.8 293C699.8 295 699.8 296.9 699.8 299.5H50C50 301.9 50 303.6 50 305.4C50 407.2 50 509 50.1 610.8C50.1 634.1 61.6 647.3 85 648.4C109.9 649.6 135 649.2 159.9 649.3C224 649.4 288.2 649.4 352.3 649.5C363.7 649.5 371.7 655.3 374.9 665C378.5 675.7 375.7 688.6 367.3 694.5C363.5 697.2 358.2 699.2 353.6 699.3C261.9 699.6 170.3 699.9 78.6 699.3C50.9 699.1 30.2 684.4 14.3 662.4C4.4 648.5 0 633 0 615.9C0.1 454.6 0.1 293.3 0 132C0 88.3 40.9 48.3 82.1 49.6C102.1 50.2 122.1 49.7 142.1 49.7C144.5 49.7 147 49.7 150.1 49.7ZM149.9 174.5V100.3C148.9 100 148.4 99.8 147.9 99.8C127.1 99.8 106.2 99.5 85.4 99.9C74.8 100.1 65.6 104.3 58.6 112.5C52.4 119.8 50 128.6 50 138C49.9 173.7 50 209.3 50 245C50 246.4 50.2 247.9 50.4 249.4H649.3C649.4 247.8 649.7 246.5 649.7 245.2C649.7 209.5 649.9 173.9 649.7 138.2C649.6 114.4 634.5 99.8 610.6 99.7C592.3 99.7 573.9 99.7 555.6 99.7C553.8 99.7 552.1 99.7 549.7 99.7V174.3H499.6V100.1H199.8V174.4H149.9V174.5Z" fill="white"/>
</g>
<mask id="mask1_5_6019" style="mask-type:luminance" maskUnits="userSpaceOnUse" x="0" y="0" width="800" height="751">
<path d="M799.9 0H0V750.2H799.9V0Z" fill="white"/>
</mask>
<g mask="url(#mask1_5_6019)">
<path d="M799.7 553.7C801.6 655.6 707.5 753.5 594.2 750.1C489.4 746.9 396.2 655.7 399.4 544C402.5 435.8 495.2 350.7 596.2 348.9C705.9 346.9 804.6 440.8 799.7 553.7ZM749.3 551.1C749.2 472.6 687.5 398.2 598.5 399.8C514.7 401.3 451 467.3 450 549.1C449 635.8 521.1 698.5 600.2 699C682 699.5 749.2 632.5 749.3 551.1Z" fill="white"/>
</g>
<mask id="mask2_5_6019" style="mask-type:luminance" maskUnits="userSpaceOnUse" x="0" y="0" width="800" height="751">
<path d="M799.9 0H0V750.2H799.9V0Z" fill="white"/>
</mask>
<g mask="url(#mask2_5_6019)">
<path d="M299.7 374.9H125.2V424.2H299.7V374.9Z" fill="white"/>
</g>
<mask id="mask3_5_6019" style="mask-type:luminance" maskUnits="userSpaceOnUse" x="0" y="0" width="800" height="751">
<path d="M799.9 0H0V750.2H799.9V0Z" fill="white"/>
</mask>
<g mask="url(#mask3_5_6019)">
<path d="M299.7 524.8H125.4V574.2H299.7V524.8Z" fill="white"/>
</g>
<mask id="mask4_5_6019" style="mask-type:luminance" maskUnits="userSpaceOnUse" x="0" y="0" width="800" height="751">
<path d="M799.9 0H0V750.2H799.9V0Z" fill="white"/>
</mask>
<g mask="url(#mask4_5_6019)">
<path d="M699.6 524.5V574.1H575.1V449.9H624.7V524.5H699.6Z" fill="white"/>
</g>
</g>
<defs>
<clipPath id="clip0_5_6019">
<rect width="799.9" height="750.2" fill="white"/>
</clipPath>
</defs>
</svg>
