<svg width="500" height="500" viewBox="0 0 500 500" fill="none" xmlns="http://www.w3.org/2000/svg">
<g clip-path="url(#clip0_5_6005)">
<mask id="mask0_5_6005" style="mask-type:luminance" maskUnits="userSpaceOnUse" x="0" y="0" width="500" height="500">
<path d="M500 0H0V500H500V0Z" fill="white"/>
</mask>
<g mask="url(#mask0_5_6005)">
<path d="M89.8999 499.8C79.2999 500.5 68.4999 498.8 64.7999 489.9C62.0999 483.5 64.3999 477.9 69.1999 473.2C75.8999 466.7 82.4999 460.1 88.9999 453.4C100.1 441.9 99.9999 423.9 88.7999 411.8C78.7999 401 59.4999 399.7 48.0999 409.7C40.4999 416.4 33.3999 423.7 26.2999 431C21.6999 435.7 16.0999 437.3 10.3999 435.2C0.899942 431.8 -0.200057 420.9 -5.67883e-05 412.2C0.899943 369.6 35.1999 328.3 79.3999 327.6C86.8999 327.5 94.4999 328.5 101.8 326.9C118.4 323.3 131.7 307.7 143.1 296.1C156.4 282.6 169 268.3 182.8 255.2C204 235.2 224.7 214.6 245.3 193.9C252 187.2 258.6 180.4 265.3 173.7C285 154.1 304.7 134.6 324.4 115.1C327.2 112.4 328 109.6 327 105.7C324.1 94.1 324.4 82.4001 326.8 70.6001C334.9 29.6001 374.2 -0.299946 415.6 0.500054C423.6 0.600054 433.1 3.10005 435.4 10.7001C437 15.7001 434.6 21.2001 431.5 25.4001C423.9 35.7001 411.6 42.2001 405.8 53.7001C400.2 64.8001 402.5 79.3001 411.2 88.1001C422.6 99.7001 442.5 99.6001 454 88.3001C460.6 81.8001 467.2 75.1001 473.8 68.5001C478.3 64.0001 483.9 62.2001 489.8 64.8001C503.3 70.7001 500.3 92.6001 497.7 104C493.2 123.4 483.2 141.5 467.8 154.3C448.6 170.3 423.5 177.6 398.7 173.4C395.4 172.8 391.9 172.1 388.8 173.4C386.9 174.2 385.3 175.7 383.9 177.2C381.9 177.2 375.5 185.6 374 187.2C370.1 191.1 366.2 195.1 362.3 199C355.4 206 348.4 212.9 341.4 219.9C326.2 235 311.1 250.2 295.9 265.4C292.8 270.3 286.5 274.8 282.4 278.9C277.3 284 272.2 289.1 267.1 294.2C257.8 303.5 248.5 312.8 239.2 322.2C219.3 342.2 199.2 362.1 179.1 382C172.2 388.9 173.2 393.5 174.2 402.3C175.1 410.7 174.7 419.2 173.1 427.5C170 444.1 162.2 459.9 150.6 472.1C139.2 484.1 124.3 492.6 108.3 496.6C103.6 497.9 96.7999 499.4 89.8999 499.8Z" fill="white"/>
</g>
<mask id="mask1_5_6005" style="mask-type:luminance" maskUnits="userSpaceOnUse" x="0" y="0" width="500" height="500">
<path d="M500 0H0V500H500V0Z" fill="white"/>
</mask>
<g mask="url(#mask1_5_6005)">
<path d="M91.8999 0C97.4999 1.1 103.3 1.9 108.8 3.4C151.1 14.7 183.3 56.8 173.3 101.9C172.7 104.4 172 107.1 172.7 109.6C173.4 112.2 175.4 114.3 177.3 116.2C192.7 131.5 208.1 146.9 223.5 162.2C224.9 163.6 226.8 164.5 228.8 166C226.8 168.3 225.9 169.6 224.8 170.7C206.9 188.6 189 206.5 171.1 224.5C168.2 227.4 166.5 228.2 163.3 224.3C159.3 219.3 154.1 215.2 149.6 210.6C138.5 199.4 127.2 188.2 116.4 176.7C112.7 172.8 109.2 171.5 103.8 172.5C79 177 56.1999 171.9 36.0999 157C-7.60006 124.4 -11.1001 58.4 30.2999 22.1C42.1999 11.7 55.7999 5.1 71.2999 2.2C75.4999 1.4 79.6999 0.7 83.8999 0L91.8999 0ZM78.1999 136.4C78.3999 136.1 78.4999 135.8 78.6999 135.5C80.1999 135.4 81.6999 135.4 83.0999 135C94.2999 132 105.6 129.2 116.5 125.5C119.9 124.3 123.9 120.8 125 117.4C129 105.5 131.9 93.2 135.2 81.1C136.4 76.5 135 72.4 131.9 69.2C123.7 60.7 115.4 52.3 106.8 44.2C102.8 40.4 97.8999 38.8 92.0999 40.5C82.8999 43.2 73.4999 45.5 64.0999 47.6C54.5999 49.8 49.1999 55.4 47.2999 65C45.5999 73.6 43.0999 82.1 40.6999 90.5C38.7999 97.2 39.8999 102.9 44.9999 107.8C52.9999 115.6 60.5999 123.8 68.7999 131.4C71.3999 133.7 74.9999 134.8 78.1999 136.4Z" fill="white"/>
</g>
<mask id="mask2_5_6005" style="mask-type:luminance" maskUnits="userSpaceOnUse" x="0" y="0" width="500" height="500">
<path d="M500 0H0V500H500V0Z" fill="white"/>
</mask>
<g mask="url(#mask2_5_6005)">
<path d="M278.8 324.8C285.6 315.8 295.2 308.8 303.2 300.9C313 291.3 323.2 282 333.1 272.5C333.8 271.9 366.5 305.3 369.4 308.2C374.5 313.3 379.5 319.8 385.2 324.1C390.4 328.1 395.7 326.5 402.3 325.8C434.3 322.1 467.7 337.8 485.2 364.8C502 390.8 502.8 427.1 488 454.2C474 479.7 446.4 497.3 417.3 499.1C414.4 499.3 411.6 499.3 408.8 499.2C360.3 497.2 318.9 452.8 326 403.1C326.6 399.1 327.5 395 326.9 391C326 384.3 319.4 380.2 314.9 375.8C305 366.1 294.3 357.3 283.7 348.4L269.2 335L278.8 324.8ZM364.7 424C366.7 427.3 368.6 431.8 371.7 435.1C378.3 442.4 385.5 449.1 392.4 456C397.5 461.1 403.4 462.9 410.6 460.9C420 458.2 429.5 455.7 439 453.4C446.8 451.5 451.2 446.7 453.1 439C455.4 429.6 457.7 420.3 460.4 411.1C462.2 404.8 461.4 399.3 456.7 394.6C449 386.8 441.2 379.1 433.4 371.3C428.8 366.7 423.4 365 417.1 366.8C406.7 369.7 396.4 372.7 386 375.6C380.2 377.2 376.5 380.8 374.9 386.6C372.8 394.3 370.6 401.9 368.5 409.6C367.3 413.9 366.2 418.2 364.7 424Z" fill="white"/>
</g>
</g>
<defs>
<clipPath id="clip0_5_6005">
<rect width="500" height="500" fill="white"/>
</clipPath>
</defs>
</svg>
