<svg width="424" height="147" viewBox="0 0 424 147" fill="none" xmlns="http://www.w3.org/2000/svg">
<g clip-path="url(#clip0_8_177)">
<mask id="mask0_8_177" style="mask-type:luminance" maskUnits="userSpaceOnUse" x="21" y="0" width="32" height="80">
<path d="M21.9999 43.3998C16.7999 61.0998 34.4999 69.6998 52.7999 79.3998C13.5999 54.3998 71.7999 33.9998 45.1999 0.299805C43.5999 18.2998 31.1999 30.1998 21.9999 43.3998Z" fill="white"/>
</mask>
<g mask="url(#mask0_8_177)">
<path d="M71.8001 0.299805H13.6001V79.3998H71.8001V0.299805Z" fill="url(#paint0_radial_8_177)"/>
</g>
<mask id="mask1_8_177" style="mask-type:luminance" maskUnits="userSpaceOnUse" x="6" y="68" width="9" height="30">
<path d="M6.90009 72.9001C5.70009 81.4001 8.70009 90.2001 14.8001 97.6001C13.2001 93.8001 13.6001 90.2001 14.9001 87.3001C11.2001 81.5001 9.30009 75.0001 9.50009 68.1001C8.50009 69.7001 7.60009 71.3001 6.90009 72.9001Z" fill="white"/>
</mask>
<g mask="url(#mask1_8_177)">
<path d="M5.9999 66.3999L-0.100098 96.4999L14.4999 99.4999L20.4999 69.2999L5.9999 66.3999Z" fill="url(#paint1_linear_8_177)"/>
</g>
<mask id="mask2_8_177" style="mask-type:luminance" maskUnits="userSpaceOnUse" x="1" y="72" width="47" height="70">
<path d="M21.3 135C43.8 152.8 63.9 129.8 29.2 109.8C13.9 101 4.80002 86.6999 6.80002 72.8999C-3.39998 94.2999 2.60002 120.2 21.3 135Z" fill="white"/>
</mask>
<g mask="url(#mask2_8_177)">
<path d="M-42.7002 119.9L36.0998 185.9L103.1 105.8L24.2998 39.7998L-42.7002 119.9Z" fill="url(#paint2_linear_8_177)"/>
</g>
<mask id="mask3_8_177" style="mask-type:luminance" maskUnits="userSpaceOnUse" x="12" y="43" width="78" height="103">
<path d="M38.6002 103.2C74.8002 121.4 64.8002 148.2 37.2002 143.4C42.1002 145 47.4002 145.9 52.9002 145.9C92.7002 145.9 102.2 113.1 71.5002 90.4999C50.1002 74.6999 15.0002 67.3999 22.0002 43.3999C5.00019 67.6999 11.0002 89.3999 38.6002 103.2Z" fill="white"/>
</mask>
<g mask="url(#mask3_8_177)">
<path d="M-43.1997 75.0997L34.4003 192.8L150.3 116.5L72.7003 -1.30029L-43.1997 75.0997Z" fill="url(#paint3_linear_8_177)"/>
</g>
<mask id="mask4_8_177" style="mask-type:luminance" maskUnits="userSpaceOnUse" x="87" y="94" width="10" height="35">
<path d="M87.6001 103.2C92.2001 110.8 94.3001 119.9 91.2001 128.5C91.9001 127.7 92.6001 126.9 93.2001 126.1C98.8001 113.7 96.1001 103.2 89.9001 94.7002C89.9001 97.9002 89.2001 100.7 87.6001 103.2Z" fill="white"/>
</mask>
<g mask="url(#mask4_8_177)">
<path d="M98.3999 130.7L105.5 96.0004L88.0999 92.4004L80.8999 127.1L98.3999 130.7Z" fill="url(#paint4_linear_8_177)"/>
</g>
<mask id="mask5_8_177" style="mask-type:luminance" maskUnits="userSpaceOnUse" x="48" y="45" width="56" height="81">
<path d="M60.0999 45.1001C43.8999 45.1001 44.2999 64.7001 66.0999 75.7001C81.8999 83.7001 104.5 101.1 93.1999 126C112.3 101.2 104.6 63.8001 76.0999 49.6001C69.6999 46.4001 64.2999 45.1001 60.0999 45.1001Z" fill="white"/>
</mask>
<g mask="url(#mask5_8_177)">
<path d="M112.4 45.1001H43.8999V126H112.4V45.1001Z" fill="url(#paint5_linear_8_177)"/>
</g>
<path d="M173.3 127H164.4L163.4 133H170.2L169.9 134.5H163.1L162 140.7H170.9L170.7 142.3H160L163 125.5H173.6L173.3 127Z" fill="#525252"/>
<path d="M173.3 127H164.4L163.4 133H170.2L169.9 134.5H163.1L162 140.7H170.9L170.7 142.3H160L163 125.5H173.6L173.3 127Z" stroke="#525252" stroke-width="0.75" stroke-miterlimit="10"/>
<mask id="mask6_8_177" style="mask-type:luminance" maskUnits="userSpaceOnUse" x="-93" y="-92" width="612" height="325">
<path d="M519 -92H-93V232.9H519V-92Z" fill="white"/>
</mask>
<g mask="url(#mask6_8_177)">
<path d="M186.4 142.3L187.6 135.5C187.8 134.1 187.5 132.2 185.4 132.2C183.8 132.2 182.1 133.9 181.7 136.2L180.6 142.3H179L181 131.1H182.5L182.2 132.9H182.3C183.1 131.6 184.5 130.8 186 130.8C188.5 130.8 189.9 132.7 189.4 135.3L188.1 142.3H186.4Z" fill="#525252"/>
</g>
<mask id="mask7_8_177" style="mask-type:luminance" maskUnits="userSpaceOnUse" x="-93" y="-92" width="612" height="325">
<path d="M519 -92H-93V232.9H519V-92Z" fill="white"/>
</mask>
<g mask="url(#mask7_8_177)">
<path d="M186.4 142.3L187.6 135.5C187.8 134.1 187.5 132.2 185.4 132.2C183.8 132.2 182.1 133.9 181.7 136.2L180.6 142.3H179L181 131.1H182.5L182.2 132.9H182.3C183.1 131.6 184.5 130.8 186 130.8C188.5 130.8 189.9 132.7 189.4 135.3L188.1 142.3H186.4Z" stroke="#525252" stroke-width="0.75" stroke-miterlimit="10"/>
</g>
<mask id="mask8_8_177" style="mask-type:luminance" maskUnits="userSpaceOnUse" x="-93" y="-92" width="612" height="325">
<path d="M519 -92H-93V232.9H519V-92Z" fill="white"/>
</mask>
<g mask="url(#mask8_8_177)">
<path d="M201.5 142.6C198.5 142.6 196.5 140.6 196.5 137.5C196.5 134 198.9 130.7 202.5 130.7C205.1 130.7 207.2 132.5 207.2 135.5C207.2 135.9 207.1 136.5 207 137H198.2C198.2 137.1 198.2 137.3 198.2 137.5C198.2 139.8 199.5 141.3 201.6 141.3C203.1 141.3 204.2 140.4 204.9 139.4L206.3 139.9C205.3 141.5 203.7 142.6 201.5 142.6ZM198.4 135.9H205.6C205.6 135.7 205.6 135.5 205.6 135.3C205.6 133.1 204.1 132.1 202.5 132.1C200.4 132.1 198.9 133.7 198.4 135.9Z" fill="#525252"/>
</g>
<mask id="mask9_8_177" style="mask-type:luminance" maskUnits="userSpaceOnUse" x="-93" y="-92" width="612" height="325">
<path d="M519 -92H-93V232.9H519V-92Z" fill="white"/>
</mask>
<g mask="url(#mask9_8_177)">
<path d="M201.5 142.6C198.5 142.6 196.5 140.6 196.5 137.5C196.5 134 198.9 130.7 202.5 130.7C205.1 130.7 207.2 132.5 207.2 135.5C207.2 135.9 207.1 136.5 207 137H198.2C198.2 137.1 198.2 137.3 198.2 137.5C198.2 139.8 199.5 141.3 201.6 141.3C203.1 141.3 204.2 140.4 204.9 139.4L206.3 139.9C205.3 141.5 203.7 142.6 201.5 142.6ZM198.4 135.9H205.6C205.6 135.7 205.6 135.5 205.6 135.3C205.6 133.1 204.1 132.1 202.5 132.1C200.4 132.1 198.9 133.7 198.4 135.9Z" stroke="#525252" stroke-width="0.75" stroke-miterlimit="10"/>
</g>
<mask id="mask10_8_177" style="mask-type:luminance" maskUnits="userSpaceOnUse" x="-93" y="-92" width="612" height="325">
<path d="M519 -92H-93V232.9H519V-92Z" fill="white"/>
</mask>
<g mask="url(#mask10_8_177)">
<path d="M213.7 142.3L215.7 131.1H217.2L216.9 132.9H217C217.7 131.6 218.9 130.8 220.2 130.8C220.7 130.8 221.2 130.9 221.4 131.1L221.1 132.7C220.9 132.6 220.5 132.4 220 132.4C218.3 132.4 216.8 134.1 216.4 136.5L215.4 142.3H213.7Z" fill="#525252"/>
</g>
<mask id="mask11_8_177" style="mask-type:luminance" maskUnits="userSpaceOnUse" x="-93" y="-92" width="612" height="325">
<path d="M519 -92H-93V232.9H519V-92Z" fill="white"/>
</mask>
<g mask="url(#mask11_8_177)">
<path d="M213.7 142.3L215.7 131.1H217.2L216.9 132.9H217C217.7 131.6 218.9 130.8 220.2 130.8C220.7 130.8 221.2 130.9 221.4 131.1L221.1 132.7C220.9 132.6 220.5 132.4 220 132.4C218.3 132.4 216.8 134.1 216.4 136.5L215.4 142.3H213.7Z" stroke="#525252" stroke-width="0.75" stroke-miterlimit="10"/>
</g>
<mask id="mask12_8_177" style="mask-type:luminance" maskUnits="userSpaceOnUse" x="-93" y="-92" width="612" height="325">
<path d="M519 -92H-93V232.9H519V-92Z" fill="white"/>
</mask>
<g mask="url(#mask12_8_177)">
<path d="M232 130.7C233.8 130.7 235.4 131.6 235.8 132.9L236.2 131.1H237.8L235.9 142.3C235.3 145.4 233.4 147.2 230.4 147.2C227.9 147.2 226.2 145.9 225.9 144L227.4 143.8C227.7 145.1 228.8 145.9 230.4 145.9C232.4 145.9 233.9 144.6 234.2 142.5L234.6 140.5C233.9 141.4 232.6 142.1 231 142.1C228.4 142.1 226.5 140.2 226.5 137.4C226.4 133.5 228.8 130.7 232 130.7ZM231.3 140.5C233.8 140.5 235.4 138.1 235.4 135.5C235.4 133.6 234.1 132.2 232.2 132.2C229.7 132.2 228.1 134.5 228.1 137.2C228.1 139.1 229.4 140.5 231.3 140.5Z" fill="#525252"/>
</g>
<mask id="mask13_8_177" style="mask-type:luminance" maskUnits="userSpaceOnUse" x="-93" y="-92" width="612" height="325">
<path d="M519 -92H-93V232.9H519V-92Z" fill="white"/>
</mask>
<g mask="url(#mask13_8_177)">
<path d="M232 130.7C233.8 130.7 235.4 131.6 235.8 132.9L236.2 131.1H237.8L235.9 142.3C235.3 145.4 233.4 147.2 230.4 147.2C227.9 147.2 226.2 145.9 225.9 144L227.4 143.8C227.7 145.1 228.8 145.9 230.4 145.9C232.4 145.9 233.9 144.6 234.2 142.5L234.6 140.5C233.9 141.4 232.6 142.1 231 142.1C228.4 142.1 226.5 140.2 226.5 137.4C226.4 133.5 228.8 130.7 232 130.7ZM231.3 140.5C233.8 140.5 235.4 138.1 235.4 135.5C235.4 133.6 234.1 132.2 232.2 132.2C229.7 132.2 228.1 134.5 228.1 137.2C228.1 139.1 229.4 140.5 231.3 140.5Z" stroke="#525252" stroke-width="0.75" stroke-miterlimit="10"/>
</g>
<mask id="mask14_8_177" style="mask-type:luminance" maskUnits="userSpaceOnUse" x="-93" y="-92" width="612" height="325">
<path d="M519 -92H-93V232.9H519V-92Z" fill="white"/>
</mask>
<g mask="url(#mask14_8_177)">
<path d="M244.7 147.1L247.8 141.9L245 131.1H246.8L249 139.9L253.9 131.1H255.7L246.4 147.1H244.7Z" fill="#525252"/>
</g>
<mask id="mask15_8_177" style="mask-type:luminance" maskUnits="userSpaceOnUse" x="-93" y="-92" width="612" height="325">
<path d="M519 -92H-93V232.9H519V-92Z" fill="white"/>
</mask>
<g mask="url(#mask15_8_177)">
<path d="M244.7 147.1L247.8 141.9L245 131.1H246.8L249 139.9L253.9 131.1H255.7L246.4 147.1H244.7Z" stroke="#525252" stroke-width="0.75" stroke-miterlimit="10"/>
</g>
<mask id="mask16_8_177" style="mask-type:luminance" maskUnits="userSpaceOnUse" x="-93" y="-92" width="612" height="325">
<path d="M519 -92H-93V232.9H519V-92Z" fill="white"/>
</mask>
<g mask="url(#mask16_8_177)">
<path d="M271.2 138.1L272.9 137.9C273.2 139.9 274.8 141.1 277 141.1C278.8 141.1 280.7 139.9 280.7 137.8C280.7 133.7 273.2 135.1 273.2 130C273.2 127.3 275.3 125.1 278.5 125.1C281.3 125.1 283.5 126.9 283.9 129.6L282.2 129.9C281.9 128 280.4 126.7 278.5 126.7C276.6 126.7 275 128 275 129.8C275 133.9 282.5 132.5 282.5 137.7C282.5 140.9 279.9 142.8 276.9 142.8C273.8 142.6 271.5 140.9 271.2 138.1Z" fill="#525252"/>
</g>
<mask id="mask17_8_177" style="mask-type:luminance" maskUnits="userSpaceOnUse" x="-93" y="-92" width="612" height="325">
<path d="M519 -92H-93V232.9H519V-92Z" fill="white"/>
</mask>
<g mask="url(#mask17_8_177)">
<path d="M271.2 138.1L272.9 137.9C273.2 139.9 274.8 141.1 277 141.1C278.8 141.1 280.7 139.9 280.7 137.8C280.7 133.7 273.2 135.1 273.2 130C273.2 127.3 275.3 125.1 278.5 125.1C281.3 125.1 283.5 126.9 283.9 129.6L282.2 129.9C281.9 128 280.4 126.7 278.5 126.7C276.6 126.7 275 128 275 129.8C275 133.9 282.5 132.5 282.5 137.7C282.5 140.9 279.9 142.8 276.9 142.8C273.8 142.6 271.5 140.9 271.2 138.1Z" stroke="#525252" stroke-width="0.75" stroke-miterlimit="10"/>
</g>
<mask id="mask18_8_177" style="mask-type:luminance" maskUnits="userSpaceOnUse" x="-93" y="-92" width="612" height="325">
<path d="M519 -92H-93V232.9H519V-92Z" fill="white"/>
</mask>
<g mask="url(#mask18_8_177)">
<path d="M294.8 142.6C291.8 142.6 289.8 140.6 289.8 137.5C289.8 134 292.2 130.7 295.8 130.7C298.4 130.7 300.5 132.5 300.5 135.5C300.5 135.9 300.4 136.5 300.3 137H291.5C291.5 137.1 291.5 137.3 291.5 137.5C291.5 139.8 292.8 141.3 294.9 141.3C296.4 141.3 297.5 140.4 298.2 139.4L299.6 139.9C298.6 141.5 296.9 142.6 294.8 142.6ZM291.6 135.9H298.8C298.8 135.7 298.8 135.5 298.8 135.3C298.8 133.1 297.3 132.1 295.7 132.1C293.6 132.1 292.1 133.7 291.6 135.9Z" fill="#525252"/>
</g>
<mask id="mask19_8_177" style="mask-type:luminance" maskUnits="userSpaceOnUse" x="-93" y="-92" width="612" height="325">
<path d="M519 -92H-93V232.9H519V-92Z" fill="white"/>
</mask>
<g mask="url(#mask19_8_177)">
<path d="M294.8 142.6C291.8 142.6 289.8 140.6 289.8 137.5C289.8 134 292.2 130.7 295.8 130.7C298.4 130.7 300.5 132.5 300.5 135.5C300.5 135.9 300.4 136.5 300.3 137H291.5C291.5 137.1 291.5 137.3 291.5 137.5C291.5 139.8 292.8 141.3 294.9 141.3C296.4 141.3 297.5 140.4 298.2 139.4L299.6 139.9C298.6 141.5 296.9 142.6 294.8 142.6ZM291.6 135.9H298.8C298.8 135.7 298.8 135.5 298.8 135.3C298.8 133.1 297.3 132.1 295.7 132.1C293.6 132.1 292.1 133.7 291.6 135.9Z" stroke="#525252" stroke-width="0.75" stroke-miterlimit="10"/>
</g>
<mask id="mask20_8_177" style="mask-type:luminance" maskUnits="userSpaceOnUse" x="-93" y="-92" width="612" height="325">
<path d="M519 -92H-93V232.9H519V-92Z" fill="white"/>
</mask>
<g mask="url(#mask20_8_177)">
<path d="M307 142.3L309 131.1H310.5L310.2 132.9H310.3C311 131.6 312.2 130.8 313.5 130.8C314 130.8 314.5 130.9 314.7 131.1L314.4 132.7C314.2 132.6 313.8 132.4 313.3 132.4C311.6 132.4 310.1 134.1 309.7 136.5L308.7 142.3H307Z" fill="#525252"/>
</g>
<mask id="mask21_8_177" style="mask-type:luminance" maskUnits="userSpaceOnUse" x="-93" y="-92" width="612" height="325">
<path d="M519 -92H-93V232.9H519V-92Z" fill="white"/>
</mask>
<g mask="url(#mask21_8_177)">
<path d="M307 142.3L309 131.1H310.5L310.2 132.9H310.3C311 131.6 312.2 130.8 313.5 130.8C314 130.8 314.5 130.9 314.7 131.1L314.4 132.7C314.2 132.6 313.8 132.4 313.3 132.4C311.6 132.4 310.1 134.1 309.7 136.5L308.7 142.3H307Z" stroke="#525252" stroke-width="0.75" stroke-miterlimit="10"/>
</g>
<mask id="mask22_8_177" style="mask-type:luminance" maskUnits="userSpaceOnUse" x="-93" y="-92" width="612" height="325">
<path d="M519 -92H-93V232.9H519V-92Z" fill="white"/>
</mask>
<g mask="url(#mask22_8_177)">
<path d="M322.7 142.5L320.3 131.1H322L323.9 140.3H324L329.1 131.1H330.9L324.3 142.5H322.7Z" fill="#525252"/>
</g>
<mask id="mask23_8_177" style="mask-type:luminance" maskUnits="userSpaceOnUse" x="-93" y="-92" width="612" height="325">
<path d="M519 -92H-93V232.9H519V-92Z" fill="white"/>
</mask>
<g mask="url(#mask23_8_177)">
<path d="M322.7 142.5L320.3 131.1H322L323.9 140.3H324L329.1 131.1H330.9L324.3 142.5H322.7Z" stroke="#525252" stroke-width="0.75" stroke-miterlimit="10"/>
</g>
<mask id="mask24_8_177" style="mask-type:luminance" maskUnits="userSpaceOnUse" x="-93" y="-92" width="612" height="325">
<path d="M519 -92H-93V232.9H519V-92Z" fill="white"/>
</mask>
<g mask="url(#mask24_8_177)">
<path d="M336.1 142.3L338.1 131.1H339.8L337.8 142.3H336.1ZM338.6 127.9L339 125.5H340.7L340.3 127.9H338.6Z" fill="#525252"/>
</g>
<mask id="mask25_8_177" style="mask-type:luminance" maskUnits="userSpaceOnUse" x="-93" y="-92" width="612" height="325">
<path d="M519 -92H-93V232.9H519V-92Z" fill="white"/>
</mask>
<g mask="url(#mask25_8_177)">
<path d="M336.1 142.3L338.1 131.1H339.8L337.8 142.3H336.1ZM338.6 127.9L339 125.5H340.7L340.3 127.9H338.6Z" stroke="#525252" stroke-width="0.75" stroke-miterlimit="10"/>
</g>
<mask id="mask26_8_177" style="mask-type:luminance" maskUnits="userSpaceOnUse" x="-93" y="-92" width="612" height="325">
<path d="M519 -92H-93V232.9H519V-92Z" fill="white"/>
</mask>
<g mask="url(#mask26_8_177)">
<path d="M352.4 130.7C354.7 130.7 356.4 132 356.9 134.2L355.2 134.6C354.9 133.1 353.7 132.2 352.2 132.2C349.6 132.2 347.9 134.7 347.9 137.6C347.9 139.8 349.2 141.2 351.1 141.2C352.6 141.2 353.9 140.3 354.5 138.7L356 139.2C355.3 141.4 353.4 142.7 351 142.7C348.1 142.7 346.2 140.8 346.2 137.8C346.3 134 348.6 130.7 352.4 130.7Z" fill="#525252"/>
</g>
<mask id="mask27_8_177" style="mask-type:luminance" maskUnits="userSpaceOnUse" x="-93" y="-92" width="612" height="325">
<path d="M519 -92H-93V232.9H519V-92Z" fill="white"/>
</mask>
<g mask="url(#mask27_8_177)">
<path d="M352.4 130.7C354.7 130.7 356.4 132 356.9 134.2L355.2 134.6C354.9 133.1 353.7 132.2 352.2 132.2C349.6 132.2 347.9 134.7 347.9 137.6C347.9 139.8 349.2 141.2 351.1 141.2C352.6 141.2 353.9 140.3 354.5 138.7L356 139.2C355.3 141.4 353.4 142.7 351 142.7C348.1 142.7 346.2 140.8 346.2 137.8C346.3 134 348.6 130.7 352.4 130.7Z" stroke="#525252" stroke-width="0.75" stroke-miterlimit="10"/>
</g>
<mask id="mask28_8_177" style="mask-type:luminance" maskUnits="userSpaceOnUse" x="-93" y="-92" width="612" height="325">
<path d="M519 -92H-93V232.9H519V-92Z" fill="white"/>
</mask>
<g mask="url(#mask28_8_177)">
<path d="M368 142.6C365 142.6 363 140.6 363 137.5C363 134 365.4 130.7 369 130.7C371.6 130.7 373.7 132.5 373.7 135.5C373.7 135.9 373.6 136.5 373.5 137H364.7C364.7 137.1 364.7 137.3 364.7 137.5C364.7 139.8 366 141.3 368.1 141.3C369.6 141.3 370.7 140.4 371.4 139.4L372.8 139.9C371.8 141.5 370.1 142.6 368 142.6ZM364.8 135.9H372C372 135.7 372 135.5 372 135.3C372 133.1 370.5 132.1 368.9 132.1C366.8 132.1 365.3 133.7 364.8 135.9Z" fill="#525252"/>
</g>
<mask id="mask29_8_177" style="mask-type:luminance" maskUnits="userSpaceOnUse" x="-93" y="-92" width="612" height="325">
<path d="M519 -92H-93V232.9H519V-92Z" fill="white"/>
</mask>
<g mask="url(#mask29_8_177)">
<path d="M368 142.6C365 142.6 363 140.6 363 137.5C363 134 365.4 130.7 369 130.7C371.6 130.7 373.7 132.5 373.7 135.5C373.7 135.9 373.6 136.5 373.5 137H364.7C364.7 137.1 364.7 137.3 364.7 137.5C364.7 139.8 366 141.3 368.1 141.3C369.6 141.3 370.7 140.4 371.4 139.4L372.8 139.9C371.8 141.5 370.1 142.6 368 142.6ZM364.8 135.9H372C372 135.7 372 135.5 372 135.3C372 133.1 370.5 132.1 368.9 132.1C366.8 132.1 365.3 133.7 364.8 135.9Z" stroke="#525252" stroke-width="0.75" stroke-miterlimit="10"/>
</g>
<mask id="mask30_8_177" style="mask-type:luminance" maskUnits="userSpaceOnUse" x="-93" y="-92" width="612" height="325">
<path d="M519 -92H-93V232.9H519V-92Z" fill="white"/>
</mask>
<g mask="url(#mask30_8_177)">
<path d="M379.9 139.5L381.5 139.4C381.7 140.6 382.7 141.3 384.1 141.3C385.4 141.3 386.5 140.6 386.5 139.2C386.5 136.6 381.1 137.6 381.1 134.1C381.1 132 382.9 130.7 385 130.7C387.3 130.7 388.7 132 389 133.7L387.4 133.9C387.2 132.8 386.3 132 384.9 132C383.8 132 382.8 132.6 382.8 133.8C382.8 136.4 388.2 135.4 388.2 138.9C388.2 141.1 386.4 142.5 383.9 142.5C381.8 142.6 380.2 141.3 379.9 139.5Z" fill="#525252"/>
</g>
<mask id="mask31_8_177" style="mask-type:luminance" maskUnits="userSpaceOnUse" x="-93" y="-92" width="612" height="325">
<path d="M519 -92H-93V232.9H519V-92Z" fill="white"/>
</mask>
<g mask="url(#mask31_8_177)">
<path d="M379.9 139.5L381.5 139.4C381.7 140.6 382.7 141.3 384.1 141.3C385.4 141.3 386.5 140.6 386.5 139.2C386.5 136.6 381.1 137.6 381.1 134.1C381.1 132 382.9 130.7 385 130.7C387.3 130.7 388.7 132 389 133.7L387.4 133.9C387.2 132.8 386.3 132 384.9 132C383.8 132 382.8 132.6 382.8 133.8C382.8 136.4 388.2 135.4 388.2 138.9C388.2 141.1 386.4 142.5 383.9 142.5C381.8 142.6 380.2 141.3 379.9 139.5Z" stroke="#525252" stroke-width="0.75" stroke-miterlimit="10"/>
</g>
<mask id="mask32_8_177" style="mask-type:luminance" maskUnits="userSpaceOnUse" x="-93" y="-92" width="612" height="325">
<path d="M519 -92H-93V232.9H519V-92Z" fill="white"/>
</mask>
<g mask="url(#mask32_8_177)">
<path d="M143.7 56.5002C141.4 56.5002 139.4 57.3002 137.7 58.9002C136.1 60.5002 135.3 62.5002 135.3 64.9002C135.3 67.7002 136.6 69.8002 139.1 71.2002C140.2 71.8002 143.5 72.9002 148.9 74.5002C153.6 75.9002 157 77.6002 159.1 79.5002C162.3 82.4002 163.9 86.5002 163.9 91.8002C163.9 96.9002 162.1 101.3 158.4 104.9C154.8 108.5 150.4 110.3 145.3 110.3H129.7C128.4 110.3 127.2 109.8 126.2 108.8C125.2 107.8 124.7 106.7 124.7 105.3V105.1C124.7 103.8 125.2 102.6 126.2 101.6C127.2 100.6 128.3 100.1 129.7 100.1H145.7C148 100.1 150 99.3002 151.7 97.7002C153.3 96.1002 154.1 94.1002 154.1 91.7002C154.1 89.0002 152.8 86.9002 150.3 85.3002C149.1 84.6002 145.8 83.4002 140.4 81.7002C135.7 80.2002 132.4 78.4002 130.2 76.5002C127 73.6002 125.4 69.7002 125.4 64.7002C125.4 59.6002 127.2 55.2002 130.8 51.6002C134.4 48.0002 138.8 46.2002 143.9 46.2002H154.9C156.3 46.2002 157.4 46.7002 158.4 47.7002C159.4 48.7002 159.8 49.8002 159.8 51.2002V51.4002C159.8 52.7002 159.3 53.9002 158.4 54.9002C157.4 55.9002 156.3 56.4002 154.9 56.4002H143.7V56.5002Z" fill="#294B80"/>
</g>
<mask id="mask33_8_177" style="mask-type:luminance" maskUnits="userSpaceOnUse" x="-93" y="-92" width="612" height="325">
<path d="M519 -92H-93V232.9H519V-92Z" fill="white"/>
</mask>
<g mask="url(#mask33_8_177)">
<path d="M178.8 90.5998C178.8 93.2998 179.7 95.5998 181.6 97.4998C183.5 99.3998 185.8 100.3 188.5 100.3C191.2 100.3 193.5 99.3998 195.4 97.4998C197.3 95.5998 198.2 93.2998 198.2 90.5998V68.2998C198.2 66.8998 198.7 65.7998 199.7 64.7998C200.7 63.7998 201.8 63.2998 203.2 63.2998H203.3C204.7 63.2998 205.8 63.7998 206.8 64.7998C207.8 65.7998 208.3 66.9998 208.3 68.2998V90.5998C208.3 95.9998 206.4 100.7 202.5 104.5C198.6 108.4 194 110.3 188.6 110.3C183.2 110.3 178.5 108.4 174.6 104.5C170.7 100.6 168.8 95.9998 168.8 90.5998V68.2998C168.8 66.8998 169.3 65.7998 170.3 64.7998C171.3 63.7998 172.4 63.2998 173.8 63.2998H173.9C175.2 63.2998 176.4 63.7998 177.4 64.7998C178.4 65.7998 178.9 66.9998 178.9 68.2998V90.5998H178.8Z" fill="#294B80"/>
</g>
<mask id="mask34_8_177" style="mask-type:luminance" maskUnits="userSpaceOnUse" x="-93" y="-92" width="612" height="325">
<path d="M519 -92H-93V232.9H519V-92Z" fill="white"/>
</mask>
<g mask="url(#mask34_8_177)">
<path d="M219.4 46.6001C220.7 46.6001 221.9 47.1001 222.9 48.0001C223.9 49.0001 224.4 50.1001 224.4 51.5001V67.4001C227.5 64.7001 232 63.3001 237.9 63.3001C244.4 63.3001 249.9 65.6001 254.5 70.2001C259.1 74.8001 261.4 80.3001 261.4 86.8001C261.4 93.3001 259.1 98.8001 254.5 103.4C249.9 108 244.4 110.3 237.9 110.3C231.4 110.3 225.9 108 221.3 103.4C216.7 98.9001 214.4 93.3001 214.4 86.9001V51.5001C214.4 50.1001 214.9 49.0001 215.9 48.0001C216.9 47.0001 218 46.6001 219.4 46.6001ZM237.9 73.4001C234.1 73.4001 230.9 74.7001 228.3 77.4001C225.7 80.0001 224.4 83.2001 224.4 87.0001C224.4 90.7001 225.7 93.9001 228.3 96.6001C230.9 99.2001 234.1 100.6 237.9 100.6C241.6 100.6 244.8 99.3001 247.5 96.6001C250.1 94.0001 251.5 90.8001 251.5 87.0001C251.5 83.2001 250.2 80.0001 247.5 77.4001C244.8 74.7001 241.6 73.4001 237.9 73.4001Z" fill="#294B80"/>
</g>
<mask id="mask35_8_177" style="mask-type:luminance" maskUnits="userSpaceOnUse" x="-93" y="-92" width="612" height="325">
<path d="M519 -92H-93V232.9H519V-92Z" fill="white"/>
</mask>
<g mask="url(#mask35_8_177)">
<path d="M272.9 46.6001C274.2 46.6001 275.4 47.1001 276.4 48.0001C277.4 49.0001 277.9 50.2001 277.9 51.5001V105.4C277.9 106.8 277.4 107.9 276.4 108.9C275.4 109.9 274.3 110.4 272.9 110.4H272.8C271.5 110.4 270.3 109.9 269.3 108.9C268.3 108 267.8 106.8 267.8 105.4V51.5001C267.8 50.1001 268.3 49.0001 269.3 48.0001C270.3 47.0001 271.4 46.6001 272.8 46.6001H272.9Z" fill="#294B80"/>
</g>
<mask id="mask36_8_177" style="mask-type:luminance" maskUnits="userSpaceOnUse" x="-93" y="-92" width="612" height="325">
<path d="M519 -92H-93V232.9H519V-92Z" fill="white"/>
</mask>
<g mask="url(#mask36_8_177)">
<path d="M292.1 58.0001C290.5 58.0001 289.2 57.4001 288.1 56.3001C287 55.2001 286.4 53.8001 286.4 52.3001C286.4 50.7001 287 49.4001 288.1 48.3001C289.2 47.2001 290.6 46.6001 292.1 46.6001C293.7 46.6001 295 47.2001 296.1 48.3001C297.2 49.4001 297.8 50.7001 297.8 52.3001C297.8 53.9001 297.2 55.3001 296.1 56.3001C295 57.4001 293.7 58.0001 292.1 58.0001ZM292.2 63.3001C293.6 63.3001 294.7 63.8001 295.7 64.8001C296.7 65.8001 297.2 67.0001 297.2 68.3001V105.4C297.2 106.8 296.7 107.9 295.7 108.9C294.8 109.9 293.6 110.4 292.2 110.4H292.1C290.7 110.4 289.6 109.9 288.6 108.9C287.6 108 287.1 106.8 287.1 105.4V68.3001C287.1 66.9001 287.6 65.8001 288.6 64.8001C289.5 63.8001 290.7 63.3001 292.2 63.3001Z" fill="#294B80"/>
</g>
<mask id="mask37_8_177" style="mask-type:luminance" maskUnits="userSpaceOnUse" x="-93" y="-92" width="612" height="325">
<path d="M519 -92H-93V232.9H519V-92Z" fill="white"/>
</mask>
<g mask="url(#mask37_8_177)">
<path d="M314.7 105.4C314.7 106.8 314.2 107.9 313.2 108.9C312.2 109.9 311.1 110.4 309.7 110.4H309.6C308.3 110.4 307.1 109.9 306.1 108.9C305.1 108 304.6 106.8 304.6 105.4V82.9998C304.6 77.5998 306.5 72.9998 310.4 69.0998C314.2 65.2998 318.9 63.2998 324.3 63.2998C330.8 63.2998 335.7 65.4998 339 69.6998C342.3 65.3998 347.1 63.2998 353.6 63.2998C359 63.2998 363.6 65.1998 367.5 69.0998C371.3 72.9998 373.3 77.5998 373.3 82.9998V105.5C373.3 106.9 372.8 108 371.9 109C370.9 110 369.8 110.5 368.4 110.5H368.3C366.9 110.5 365.8 110 364.8 109C363.8 108.1 363.3 106.9 363.3 105.5V82.9998C363.3 80.2998 362.4 78.0998 360.5 76.1998C358.6 74.2998 356.3 73.3998 353.6 73.3998C350.9 73.3998 348.7 74.2998 346.8 76.1998C344.9 78.0998 344 80.3998 344 82.9998V105.5C344 106.9 343.5 108 342.5 109C341.6 110 340.4 110.5 339 110.5C337.6 110.5 336.5 110 335.5 109C334.5 108.1 334 106.9 334 105.5V82.9998C334 80.2998 333.1 78.0998 331.2 76.1998C329.3 74.2998 327.1 73.3998 324.4 73.3998C321.7 73.3998 319.5 74.2998 317.6 76.1998C315.7 78.0998 314.8 80.3998 314.8 82.9998V105.4H314.7Z" fill="#294B80"/>
</g>
<path d="M423 76.9999C423.3 77.6999 423.5 78.3999 423.5 79.0999C423.5 79.6999 423.4 80.1999 423.2 80.7999C422.7 82.0999 421.9 82.9999 420.6 83.5999C416.8 85.2999 411.8 87.5999 405.6 90.3999C397.9 93.8999 393.4 95.8999 392 96.5999C394.1 99.1999 397.3 100.5 401.7 100.5C404.6 100.5 407.3 99.5999 409.6 97.8999C411.9 96.1999 413.5 93.9999 414.5 91.3999C415.3 89.1999 416.9 88.0999 419.2 88.0999C420.9 88.0999 422.2 88.7999 423.2 90.1999C423.8 91.0999 424.1 91.9999 424.1 92.8999C424.1 93.4999 424 94.0999 423.8 94.6999C422.2 99.3999 419.4 103.1 415.3 106C411.2 109 406.6 110.4 401.6 110.4C395.1 110.4 389.6 108.1 385 103.5C380.4 98.8999 378.1 93.3999 378.1 86.8999C378.1 80.3999 380.4 74.8999 385 70.2999C389.6 65.6999 395.1 63.3999 401.6 63.3999C406.3 63.3999 410.6 64.6999 414.4 67.1999C418.3 69.6999 421.1 72.8999 423 76.9999ZM401.6 73.3999C397.8 73.3999 394.6 74.6999 392 77.3999C389.4 79.9999 388.1 83.1999 388.1 86.9999V87.2999L410.9 77.0999C408.9 74.5999 405.8 73.3999 401.6 73.3999Z" fill="#294B80"/>
</g>
<defs>
<radialGradient id="paint0_radial_8_177" cx="0" cy="0" r="1" gradientUnits="userSpaceOnUse" gradientTransform="translate(62.7353 -40.0535) rotate(90) scale(112.542 112.542)">
<stop stop-color="white"/>
<stop offset="0.5" stop-color="#F6B521"/>
<stop offset="1" stop-color="#C82127"/>
</radialGradient>
<linearGradient id="paint1_linear_8_177" x1="14.4064" y1="62.0081" x2="10.2494" y2="82.7929" gradientUnits="userSpaceOnUse">
<stop stop-color="#44AC49"/>
<stop offset="0.5" stop-color="#44AC49"/>
<stop offset="1" stop-color="#228240"/>
</linearGradient>
<linearGradient id="paint2_linear_8_177" x1="10.0231" y1="95.9429" x2="41.616" y2="122.381" gradientUnits="userSpaceOnUse">
<stop stop-color="#44AC49"/>
<stop offset="0.5" stop-color="#44AC49"/>
<stop offset="1" stop-color="#228240"/>
</linearGradient>
<linearGradient id="paint3_linear_8_177" x1="26.327" y1="54.4821" x2="80.7" y2="137.039" gradientUnits="userSpaceOnUse">
<stop stop-color="#F6B521"/>
<stop offset="1" stop-color="#C82127"/>
</linearGradient>
<linearGradient id="paint4_linear_8_177" x1="89.3861" y1="130.156" x2="95.1227" y2="102.221" gradientUnits="userSpaceOnUse">
<stop stop-color="#0C7EC2"/>
<stop offset="1" stop-color="#304274"/>
</linearGradient>
<linearGradient id="paint5_linear_8_177" x1="78.1096" y1="139.651" x2="78.1096" y2="40.5506" gradientUnits="userSpaceOnUse">
<stop stop-color="#0C7EC2"/>
<stop offset="1" stop-color="#304274"/>
</linearGradient>
<clipPath id="clip0_8_177">
<rect width="424" height="147" fill="white"/>
</clipPath>
</defs>
</svg>
